<svg width="26" height="26" viewBox="0 0 26 26" fill="none" xmlns="http://www.w3.org/2000/svg">
<path d="M4.33335 21.6666C3.73752 21.6666 3.22745 21.4544 2.80315 21.0301C2.37884 20.6058 2.16669 20.0958 2.16669 19.4999V6.49992C2.16669 5.90409 2.37884 5.39402 2.80315 4.96971C3.22745 4.5454 3.73752 4.33325 4.33335 4.33325H21.6667C22.2625 4.33325 22.7726 4.5454 23.1969 4.96971C23.6212 5.39402 23.8334 5.90409 23.8334 6.49992V19.4999C23.8334 20.0958 23.6212 20.6058 23.1969 21.0301C22.7726 21.4544 22.2625 21.6666 21.6667 21.6666H4.33335ZM13 14.0833L4.33335 8.66658V19.4999H21.6667V8.66658L13 14.0833ZM13 11.9166L21.6667 6.49992H4.33335L13 11.9166ZM4.33335 8.66658V6.49992V19.4999V8.66658Z" fill="url(#paint0_linear_34_24)"/>
<defs>
<linearGradient id="paint0_linear_34_24" x1="2.16669" y1="5.66802" x2="23.8334" y2="20.3318" gradientUnits="userSpaceOnUse">
<stop stop-color="#5E4037"/>
<stop offset="0.5" stop-color="#FFA280"/>
<stop offset="1" stop-color="#814926"/>
</linearGradient>
</defs>
</svg>
