<svg width="43" height="43" viewBox="0 0 43 43" fill="none" xmlns="http://www.w3.org/2000/svg">
<path d="M7.16665 35.8333C6.18123 35.8333 5.33765 35.4824 4.63592 34.7807C3.93418 34.079 3.58331 33.2354 3.58331 32.25V10.75C3.58331 9.76454 3.93418 8.92097 4.63592 8.21923C5.33765 7.51749 6.18123 7.16663 7.16665 7.16663H35.8333C36.8187 7.16663 37.6623 7.51749 38.364 8.21923C39.0658 8.92097 39.4166 9.76454 39.4166 10.75V32.25C39.4166 33.2354 39.0658 34.079 38.364 34.7807C37.6623 35.4824 36.8187 35.8333 35.8333 35.8333H7.16665ZM21.5 23.2916L7.16665 14.3333V32.25H35.8333V14.3333L21.5 23.2916ZM21.5 19.7083L35.8333 10.75H7.16665L21.5 19.7083ZM7.16665 14.3333V10.75V32.25V14.3333Z" fill="url(#paint0_linear_10_29)"/>
<defs>
<linearGradient id="paint0_linear_10_29" x1="3.58331" y1="9.37413" x2="39.4166" y2="33.6258" gradientUnits="userSpaceOnUse">
<stop stop-color="#5E4037"/>
<stop offset="0.5" stop-color="#FFA280"/>
<stop offset="1" stop-color="#814926"/>
</linearGradient>
</defs>
</svg>

