<svg width="34" height="34" viewBox="0 0 34 34" fill="none" xmlns="http://www.w3.org/2000/svg">
<g clip-path="url(#clip0_10_60)">
<path d="M24.7916 9.20837H24.8058M9.91665 2.83337H24.0833C27.9953 2.83337 31.1666 6.00469 31.1666 9.91671V24.0834C31.1666 27.9954 27.9953 31.1667 24.0833 31.1667H9.91665C6.00463 31.1667 2.83331 27.9954 2.83331 24.0834V9.91671C2.83331 6.00469 6.00463 2.83337 9.91665 2.83337ZM22.6666 16.1075C22.8415 17.2866 22.6401 18.4907 22.0911 19.5486C21.5422 20.6066 20.6736 21.4645 19.6089 22.0004C18.5443 22.5363 17.3378 22.7228 16.161 22.5334C14.9842 22.3441 13.8971 21.7885 13.0543 20.9457C12.2115 20.1029 11.6559 19.0158 11.4666 17.839C11.2772 16.6622 11.4637 15.4557 11.9996 14.3911C12.5355 13.3264 13.3934 12.4578 14.4514 11.9089C15.5093 11.3599 16.7135 11.1585 17.8925 11.3334C19.0951 11.5117 20.2085 12.0721 21.0682 12.9318C21.9279 13.7915 22.4883 14.9049 22.6666 16.1075Z" stroke="url(#paint0_linear_10_60)" stroke-width="4" stroke-linecap="round" stroke-linejoin="round"/>
</g>
<defs>
<linearGradient id="paint0_linear_10_60" x1="5.61501" y1="2.83337" x2="28.385" y2="31.1667" gradientUnits="userSpaceOnUse">
<stop stop-color="#5E4037"/>
<stop offset="0.5" stop-color="#FFA280"/>
<stop offset="1" stop-color="#814926"/>
</linearGradient>
<clipPath id="clip0_10_60">
<rect width="34" height="34" fill="white"/>
</clipPath>
</defs>
</svg>

