<svg width="22" height="22" viewBox="0 0 22 22" fill="none" xmlns="http://www.w3.org/2000/svg">
<g clip-path="url(#clip0_34_25)">
<path d="M16.0416 5.95825H16.0508M6.41665 1.83325H15.5833C18.1146 1.83325 20.1666 3.88528 20.1666 6.41659V15.5833C20.1666 18.1146 18.1146 20.1666 15.5833 20.1666H6.41665C3.88534 20.1666 1.83331 18.1146 1.83331 15.5833V6.41659C1.83331 3.88528 3.88534 1.83325 6.41665 1.83325ZM14.6666 10.4224C14.7798 11.1853 14.6495 11.9644 14.2943 12.649C13.9391 13.3336 13.377 13.8887 12.6881 14.2355C11.9992 14.5822 11.2186 14.7029 10.4571 14.5804C9.69568 14.4578 8.99226 14.0983 8.44692 13.553C7.90157 13.0076 7.54207 12.3042 7.41954 11.5428C7.29702 10.7813 7.41771 10.0007 7.76445 9.31176C8.11118 8.62287 8.66632 8.06085 9.35088 7.70564C10.0354 7.35043 10.8146 7.22012 11.5775 7.33325C12.3557 7.44865 13.0761 7.81126 13.6324 8.36753C14.1886 8.92381 14.5513 9.64424 14.6666 10.4224Z" stroke="url(#paint0_linear_34_25)" stroke-width="2.5" stroke-linecap="round" stroke-linejoin="round"/>
</g>
<defs>
<linearGradient id="paint0_linear_34_25" x1="3.63323" y1="1.83325" x2="18.3667" y2="20.1666" gradientUnits="userSpaceOnUse">
<stop stop-color="#5E4037"/>
<stop offset="0.5" stop-color="#FFA280"/>
<stop offset="1" stop-color="#814926"/>
</linearGradient>
<clipPath id="clip0_34_25">
<rect width="22" height="22" fill="white"/>
</clipPath>
</defs>
</svg>

