<svg width="403" height="278" viewBox="0 0 403 278" fill="none" xmlns="http://www.w3.org/2000/svg">
<path fill-rule="evenodd" clip-rule="evenodd" d="M0 277.875V0.00235719H14.4069V277.875H0Z" fill="url(#paint0_linear_15_81)"/>
<path fill-rule="evenodd" clip-rule="evenodd" d="M245.033 277.875V0.00235719H259.44V277.875H245.033Z" fill="url(#paint1_linear_15_81)"/>
<path fill-rule="evenodd" clip-rule="evenodd" d="M272.656 277.875V0.00235719H287.063V277.875H272.656Z" fill="url(#paint2_linear_15_81)"/>
<path fill-rule="evenodd" clip-rule="evenodd" d="M157.525 277.873L2.30483 7.17413L14.801 0L170.021 270.698L157.525 277.873Z" fill="url(#paint3_linear_15_81)"/>
<path fill-rule="evenodd" clip-rule="evenodd" d="M195.775 277.873L40.5552 7.17413L53.0514 2.86415e-07L208.272 270.698L195.775 277.873Z" fill="url(#paint4_linear_15_81)"/>
<path fill-rule="evenodd" clip-rule="evenodd" d="M256.658 9.037L137.542 157.211L126.316 148.176L245.432 0.00156898L256.658 9.037Z" fill="url(#paint5_linear_15_81)"/>
<path d="M40.5555 7.08528L40.0128 0.00235719H52.9454L53.8963 4.63461L40.5555 7.08528Z" fill="url(#paint6_linear_15_81)"/>
<path d="M170.17 270.792L170.693 277.875H158.27L157.352 273.243L170.17 270.792Z" fill="url(#paint7_linear_15_81)"/>
<path d="M208.42 270.792L208.944 277.875H196.525L195.603 273.243L208.42 270.792Z" fill="url(#paint8_linear_15_81)"/>
<path fill-rule="evenodd" clip-rule="evenodd" d="M403 277.875H272.656V263.459H403V277.875Z" fill="url(#paint9_linear_15_81)"/>
<path fill-rule="evenodd" clip-rule="evenodd" d="M382.581 278H252.236V263.584H382.581V278Z" fill="url(#paint10_linear_15_81)"/>
<defs>
<linearGradient id="paint0_linear_15_81" x1="537.412" y1="393.013" x2="-160.199" y2="-141.292" gradientUnits="userSpaceOnUse">
<stop stop-color="#5E4037"/>
<stop offset="0.5" stop-color="#FFA280"/>
<stop offset="0.911822" stop-color="#814926"/>
</linearGradient>
<linearGradient id="paint1_linear_15_81" x1="537.412" y1="393.013" x2="-160.199" y2="-141.292" gradientUnits="userSpaceOnUse">
<stop stop-color="#5E4037"/>
<stop offset="0.5" stop-color="#FFA280"/>
<stop offset="0.911822" stop-color="#814926"/>
</linearGradient>
<linearGradient id="paint2_linear_15_81" x1="537.412" y1="393.013" x2="-160.199" y2="-141.292" gradientUnits="userSpaceOnUse">
<stop stop-color="#5E4037"/>
<stop offset="0.5" stop-color="#FFA280"/>
<stop offset="0.911822" stop-color="#814926"/>
</linearGradient>
<linearGradient id="paint3_linear_15_81" x1="537.412" y1="393.013" x2="-160.199" y2="-141.292" gradientUnits="userSpaceOnUse">
<stop stop-color="#5E4037"/>
<stop offset="0.5" stop-color="#FFA280"/>
<stop offset="0.911822" stop-color="#814926"/>
</linearGradient>
<linearGradient id="paint4_linear_15_81" x1="537.412" y1="393.013" x2="-160.199" y2="-141.292" gradientUnits="userSpaceOnUse">
<stop stop-color="#5E4037"/>
<stop offset="0.5" stop-color="#FFA280"/>
<stop offset="0.911822" stop-color="#814926"/>
</linearGradient>
<linearGradient id="paint5_linear_15_81" x1="537.412" y1="393.013" x2="-160.199" y2="-141.292" gradientUnits="userSpaceOnUse">
<stop stop-color="#5E4037"/>
<stop offset="0.5" stop-color="#FFA280"/>
<stop offset="0.911822" stop-color="#814926"/>
</linearGradient>
<linearGradient id="paint6_linear_15_81" x1="537.412" y1="393.013" x2="-160.199" y2="-141.292" gradientUnits="userSpaceOnUse">
<stop stop-color="#5E4037"/>
<stop offset="0.5" stop-color="#FFA280"/>
<stop offset="0.911822" stop-color="#814926"/>
</linearGradient>
<linearGradient id="paint7_linear_15_81" x1="537.412" y1="393.013" x2="-160.199" y2="-141.292" gradientUnits="userSpaceOnUse">
<stop stop-color="#5E4037"/>
<stop offset="0.5" stop-color="#FFA280"/>
<stop offset="0.911822" stop-color="#814926"/>
</linearGradient>
<linearGradient id="paint8_linear_15_81" x1="537.412" y1="393.013" x2="-160.199" y2="-141.292" gradientUnits="userSpaceOnUse">
<stop stop-color="#5E4037"/>
<stop offset="0.5" stop-color="#FFA280"/>
<stop offset="0.911822" stop-color="#814926"/>
</linearGradient>
<linearGradient id="paint9_linear_15_81" x1="537.412" y1="393.013" x2="-160.199" y2="-141.292" gradientUnits="userSpaceOnUse">
<stop stop-color="#5E4037"/>
<stop offset="0.5" stop-color="#FFA280"/>
<stop offset="0.911822" stop-color="#814926"/>
</linearGradient>
<linearGradient id="paint10_linear_15_81" x1="537.412" y1="393.013" x2="-160.199" y2="-141.292" gradientUnits="userSpaceOnUse">
<stop stop-color="#5E4037"/>
<stop offset="0.5" stop-color="#FFA280"/>
<stop offset="0.911822" stop-color="#814926"/>
</linearGradient>
</defs>
</svg>

